<svg width="1440" height="1024" viewBox="0 0 1440 1024" fill="none" xmlns="http://www.w3.org/2000/svg">
<rect width="1440" height="1024" fill="#FFFDF3"/>
<mask id="path-1-inside-1_1_3308" fill="white">
<path d="M0 0H1440V80H0V0Z"/>
</mask>
<path d="M0 0H1440V80H0V0Z" fill="white"/>
<path d="M1440 79H0V81H1440V79Z" fill="#3A3541" fill-opacity="0.12" mask="url(#path-1-inside-1_1_3308)"/>
<path d="M147.824 48.04L142 32.168H146.288L150.32 44.168L154.352 32.168H158.64L152.784 48.04H147.824Z" fill="#F64920"/>
<path d="M163.632 29.704C162.885 29.704 162.266 29.48 161.776 29.032C161.306 28.584 161.072 28.0187 161.072 27.336C161.072 26.6533 161.306 26.0987 161.776 25.672C162.266 25.224 162.885 25 163.632 25C164.378 25 164.986 25.224 165.456 25.672C165.946 26.0987 166.192 26.6533 166.192 27.336C166.192 28.0187 165.946 28.584 165.456 29.032C164.986 29.48 164.378 29.704 163.632 29.704ZM161.583 48.04V32.168H165.68V48.04H161.583Z" fill="#F64920"/>
<path d="M177.451 48.424C175.957 48.424 174.624 48.0613 173.451 47.336C172.277 46.6107 171.349 45.6187 170.667 44.36C169.984 43.1013 169.643 41.672 169.643 40.072C169.643 38.472 169.984 37.0533 170.667 35.816C171.349 34.5573 172.277 33.576 173.451 32.872C174.624 32.1467 175.957 31.784 177.451 31.784C178.645 31.784 179.691 32.008 180.587 32.456C181.483 32.904 182.208 33.5333 182.763 34.344V25H186.859V48.04H183.211L182.763 45.768C182.251 46.472 181.568 47.0907 180.715 47.624C179.883 48.1573 178.795 48.424 177.451 48.424ZM178.315 44.84C179.637 44.84 180.715 44.4027 181.547 43.528C182.4 42.632 182.827 41.4907 182.827 40.104C182.827 38.7173 182.4 37.5867 181.547 36.712C180.715 35.816 179.637 35.368 178.315 35.368C177.013 35.368 175.936 35.8053 175.083 36.68C174.229 37.5547 173.803 38.6853 173.803 40.072C173.803 41.4587 174.229 42.6 175.083 43.496C175.936 44.392 177.013 44.84 178.315 44.84Z" fill="#F64920"/>
<path d="M198.942 48.424C197.342 48.424 195.923 48.0827 194.686 47.4C193.448 46.7173 192.478 45.7573 191.774 44.52C191.07 43.2827 190.718 41.8533 190.718 40.232C190.718 38.5893 191.059 37.128 191.742 35.848C192.446 34.568 193.406 33.576 194.622 32.872C195.859 32.1467 197.31 31.784 198.974 31.784C200.531 31.784 201.907 32.1253 203.102 32.808C204.296 33.4907 205.224 34.4293 205.886 35.624C206.568 36.7973 206.91 38.1093 206.91 39.56C206.91 39.7947 206.899 40.04 206.878 40.296C206.878 40.552 206.867 40.8187 206.846 41.096H194.782C194.867 42.3333 195.294 43.304 196.062 44.008C196.851 44.712 197.8 45.064 198.91 45.064C199.742 45.064 200.435 44.8827 200.99 44.52C201.566 44.136 201.992 43.6453 202.27 43.048H206.43C206.131 44.0507 205.63 44.968 204.926 45.8C204.243 46.6107 203.39 47.2507 202.366 47.72C201.363 48.1893 200.222 48.424 198.942 48.424ZM198.974 35.112C197.971 35.112 197.086 35.4 196.318 35.976C195.55 36.5307 195.059 37.384 194.846 38.536H202.75C202.686 37.4907 202.302 36.6587 201.598 36.04C200.894 35.4213 200.019 35.112 198.974 35.112Z" fill="#F64920"/>
<path d="M218.171 48.424C216.635 48.424 215.248 48.072 214.011 47.368C212.795 46.664 211.824 45.6933 211.099 44.456C210.395 43.1973 210.043 41.7467 210.043 40.104C210.043 38.4613 210.405 37.0213 211.131 35.784C211.856 34.5253 212.827 33.544 214.043 32.84C215.28 32.136 216.667 31.784 218.203 31.784C219.717 31.784 221.083 32.136 222.299 32.84C223.536 33.544 224.507 34.5253 225.211 35.784C225.936 37.0213 226.299 38.4613 226.299 40.104C226.299 41.7467 225.936 43.1973 225.211 44.456C224.507 45.6933 223.536 46.664 222.299 47.368C221.061 48.072 219.685 48.424 218.171 48.424ZM218.171 44.872C219.237 44.872 220.165 44.4773 220.955 43.688C221.744 42.8773 222.139 41.6827 222.139 40.104C222.139 38.5253 221.744 37.3413 220.955 36.552C220.165 35.7413 219.248 35.336 218.203 35.336C217.115 35.336 216.176 35.7413 215.387 36.552C214.619 37.3413 214.235 38.5253 214.235 40.104C214.235 41.6827 214.619 42.8773 215.387 43.688C216.176 44.4773 217.104 44.872 218.171 44.872Z" fill="#F64920"/>
<path d="M239.569 48.424C238.374 48.424 237.329 48.2 236.433 47.752C235.537 47.304 234.812 46.6747 234.257 45.864L233.809 48.04H230.161V25H234.257V34.44C234.769 33.736 235.441 33.1173 236.273 32.584C237.126 32.0507 238.225 31.784 239.569 31.784C241.062 31.784 242.396 32.1467 243.569 32.872C244.742 33.5973 245.67 34.5893 246.353 35.848C247.036 37.1067 247.377 38.536 247.377 40.136C247.377 41.736 247.036 43.1653 246.353 44.424C245.67 45.6613 244.742 46.6427 243.569 47.368C242.396 48.072 241.062 48.424 239.569 48.424ZM238.705 44.84C240.006 44.84 241.084 44.4027 241.937 43.528C242.79 42.6533 243.217 41.5227 243.217 40.136C243.217 38.7493 242.79 37.608 241.937 36.712C241.084 35.816 240.006 35.368 238.705 35.368C237.382 35.368 236.294 35.816 235.441 36.712C234.609 37.5867 234.193 38.7173 234.193 40.104C234.193 41.4907 234.609 42.632 235.441 43.528C236.294 44.4027 237.382 44.84 238.705 44.84Z" fill="#F64920"/>
<path d="M258.948 48.424C257.348 48.424 255.929 48.0827 254.692 47.4C253.455 46.7173 252.484 45.7573 251.78 44.52C251.076 43.2827 250.724 41.8533 250.724 40.232C250.724 38.5893 251.065 37.128 251.748 35.848C252.452 34.568 253.412 33.576 254.628 32.872C255.865 32.1467 257.316 31.784 258.98 31.784C260.537 31.784 261.913 32.1253 263.108 32.808C264.303 33.4907 265.231 34.4293 265.892 35.624C266.575 36.7973 266.916 38.1093 266.916 39.56C266.916 39.7947 266.905 40.04 266.884 40.296C266.884 40.552 266.873 40.8187 266.852 41.096H254.788C254.873 42.3333 255.3 43.304 256.068 44.008C256.857 44.712 257.807 45.064 258.916 45.064C259.748 45.064 260.441 44.8827 260.996 44.52C261.572 44.136 261.999 43.6453 262.276 43.048H266.436C266.137 44.0507 265.636 44.968 264.932 45.8C264.249 46.6107 263.396 47.2507 262.372 47.72C261.369 48.1893 260.228 48.424 258.948 48.424ZM258.98 35.112C257.977 35.112 257.092 35.4 256.324 35.976C255.556 36.5307 255.065 37.384 254.852 38.536H262.756C262.692 37.4907 262.308 36.6587 261.604 36.04C260.9 35.4213 260.025 35.112 258.98 35.112Z" fill="#F64920"/>
<path d="M270.561 48.04V25H274.657V48.04H270.561Z" fill="#F64920"/>
<path d="M284.514 48.424C283.149 48.424 282.029 48.2107 281.154 47.784C280.28 47.336 279.629 46.7493 279.202 46.024C278.776 45.2987 278.562 44.4987 278.562 43.624C278.562 42.152 279.138 40.9573 280.29 40.04C281.442 39.1227 283.17 38.664 285.474 38.664H289.506V38.28C289.506 37.192 289.197 36.392 288.578 35.88C287.96 35.368 287.192 35.112 286.274 35.112C285.442 35.112 284.717 35.3147 284.098 35.72C283.48 36.104 283.096 36.68 282.946 37.448H278.946C279.053 36.296 279.437 35.2933 280.098 34.44C280.781 33.5867 281.656 32.936 282.722 32.488C283.789 32.0187 284.984 31.784 286.306 31.784C288.568 31.784 290.349 32.3493 291.65 33.48C292.952 34.6107 293.602 36.2107 293.602 38.28V48.04H290.114L289.73 45.48C289.261 46.3333 288.6 47.0373 287.746 47.592C286.914 48.1467 285.837 48.424 284.514 48.424ZM285.442 45.224C286.616 45.224 287.522 44.84 288.162 44.072C288.824 43.304 289.24 42.3547 289.41 41.224H285.922C284.834 41.224 284.056 41.4267 283.586 41.832C283.117 42.216 282.882 42.696 282.882 43.272C282.882 43.8907 283.117 44.3707 283.586 44.712C284.056 45.0533 284.674 45.224 285.442 45.224Z" fill="#F64920"/>
<path d="M299.983 29.704C299.236 29.704 298.618 29.48 298.127 29.032C297.658 28.584 297.423 28.0187 297.423 27.336C297.423 26.6533 297.658 26.0987 298.127 25.672C298.618 25.224 299.236 25 299.983 25C300.73 25 301.338 25.224 301.807 25.672C302.298 26.0987 302.543 26.6533 302.543 27.336C302.543 28.0187 302.298 28.584 301.807 29.032C301.338 29.48 300.73 29.704 299.983 29.704ZM294.703 55.08V51.592H295.951C296.655 51.592 297.156 51.4533 297.455 51.176C297.754 50.8987 297.903 50.4293 297.903 49.768V32.168H301.999V49.768C301.999 51.688 301.508 53.0533 300.527 53.864C299.567 54.6747 298.255 55.08 296.591 55.08H294.703Z" fill="#F64920"/>
<path d="M311.945 48.424C310.58 48.424 309.46 48.2107 308.585 47.784C307.711 47.336 307.06 46.7493 306.633 46.024C306.207 45.2987 305.993 44.4987 305.993 43.624C305.993 42.152 306.569 40.9573 307.721 40.04C308.873 39.1227 310.602 38.664 312.906 38.664H316.938V38.28C316.938 37.192 316.628 36.392 316.01 35.88C315.391 35.368 314.623 35.112 313.706 35.112C312.874 35.112 312.148 35.3147 311.529 35.72C310.911 36.104 310.527 36.68 310.378 37.448H306.378C306.484 36.296 306.868 35.2933 307.529 34.44C308.212 33.5867 309.087 32.936 310.154 32.488C311.22 32.0187 312.415 31.784 313.738 31.784C315.999 31.784 317.78 32.3493 319.081 33.48C320.383 34.6107 321.034 36.2107 321.034 38.28V48.04H317.546L317.161 45.48C316.692 46.3333 316.031 47.0373 315.178 47.592C314.346 48.1467 313.268 48.424 311.945 48.424ZM312.874 45.224C314.047 45.224 314.954 44.84 315.594 44.072C316.255 43.304 316.671 42.3547 316.842 41.224H313.354C312.266 41.224 311.487 41.4267 311.018 41.832C310.548 42.216 310.314 42.696 310.314 43.272C310.314 43.8907 310.548 44.3707 311.018 44.712C311.487 45.0533 312.106 45.224 312.874 45.224Z" fill="#F64920"/>
<path d="M325.142 48.04V32.168H328.79L329.174 35.144C329.75 34.12 330.529 33.3093 331.51 32.712C332.513 32.0933 333.686 31.784 335.03 31.784V36.104H333.878C332.982 36.104 332.182 36.2427 331.478 36.52C330.774 36.7973 330.22 37.2773 329.814 37.96C329.43 38.6427 329.238 39.592 329.238 40.808V48.04H325.142Z" fill="#F64920"/>
<path fill-rule="evenodd" clip-rule="evenodd" d="M161.776 29.032C162.266 29.48 162.885 29.704 163.632 29.704C164.378 29.704 164.986 29.48 165.456 29.032C165.946 28.584 166.192 28.0187 166.192 27.336C166.192 26.6533 165.946 26.0987 165.456 25.672C164.986 25.224 164.378 25 163.632 25C162.885 25 162.266 25.224 161.776 25.672C161.306 26.0987 161.072 26.6533 161.072 27.336C161.072 28.0187 161.306 28.584 161.776 29.032ZM161.583 32.168V48.04H165.68V32.168H161.583ZM142 32.168L147.824 48.04H152.784L158.64 32.168H154.352L150.32 44.168L146.288 32.168H142ZM177.451 48.424C175.957 48.424 174.624 48.0613 173.451 47.336C172.277 46.6107 171.349 45.6187 170.667 44.36C169.984 43.1013 169.643 41.672 169.643 40.072C169.643 38.472 169.984 37.0533 170.667 35.816C171.349 34.5573 172.277 33.576 173.451 32.872C174.624 32.1467 175.957 31.784 177.451 31.784C178.645 31.784 179.691 32.008 180.587 32.456C181.483 32.904 182.208 33.5333 182.763 34.344V25H186.859V48.04H183.211L182.763 45.768C182.251 46.472 181.568 47.0907 180.715 47.624C179.883 48.1573 178.795 48.424 177.451 48.424ZM178.315 44.84C179.637 44.84 180.715 44.4027 181.547 43.528C182.4 42.632 182.827 41.4907 182.827 40.104C182.827 38.7173 182.4 37.5867 181.547 36.712C180.715 35.816 179.637 35.368 178.315 35.368C177.013 35.368 175.936 35.8053 175.083 36.68C174.229 37.5547 173.803 38.6853 173.803 40.072C173.803 41.4587 174.229 42.6 175.083 43.496C175.936 44.392 177.013 44.84 178.315 44.84ZM194.686 47.4C195.923 48.0827 197.342 48.424 198.942 48.424C200.222 48.424 201.363 48.1893 202.366 47.72C203.39 47.2507 204.243 46.6107 204.926 45.8C205.63 44.968 206.131 44.0507 206.43 43.048H202.27C201.992 43.6453 201.566 44.136 200.99 44.52C200.435 44.8827 199.742 45.064 198.91 45.064C197.8 45.064 196.851 44.712 196.062 44.008C195.294 43.304 194.867 42.3333 194.782 41.096H206.846C206.867 40.8187 206.878 40.552 206.878 40.296C206.899 40.04 206.91 39.7947 206.91 39.56C206.91 38.1093 206.568 36.7973 205.886 35.624C205.224 34.4293 204.296 33.4907 203.102 32.808C201.907 32.1253 200.531 31.784 198.974 31.784C197.31 31.784 195.859 32.1467 194.622 32.872C193.406 33.576 192.446 34.568 191.742 35.848C191.059 37.128 190.718 38.5893 190.718 40.232C190.718 41.8533 191.07 43.2827 191.774 44.52C192.478 45.7573 193.448 46.7173 194.686 47.4ZM196.318 35.976C197.086 35.4 197.971 35.112 198.974 35.112C200.019 35.112 200.894 35.4213 201.598 36.04C202.302 36.6587 202.686 37.4907 202.75 38.536H194.846C195.059 37.384 195.55 36.5307 196.318 35.976ZM218.171 48.424C216.635 48.424 215.248 48.072 214.011 47.368C212.795 46.664 211.824 45.6933 211.099 44.456C210.395 43.1973 210.043 41.7467 210.043 40.104C210.043 38.4613 210.405 37.0213 211.131 35.784C211.856 34.5253 212.827 33.544 214.043 32.84C215.28 32.136 216.667 31.784 218.203 31.784C219.717 31.784 221.083 32.136 222.299 32.84C223.536 33.544 224.507 34.5253 225.211 35.784C225.936 37.0213 226.299 38.4613 226.299 40.104C226.299 41.7467 225.936 43.1973 225.211 44.456C224.507 45.6933 223.536 46.664 222.299 47.368C221.061 48.072 219.685 48.424 218.171 48.424ZM218.171 44.872C219.237 44.872 220.165 44.4773 220.955 43.688C221.744 42.8773 222.139 41.6827 222.139 40.104C222.139 38.5253 221.744 37.3413 220.955 36.552C220.165 35.7413 219.248 35.336 218.203 35.336C217.115 35.336 216.176 35.7413 215.387 36.552C214.619 37.3413 214.235 38.5253 214.235 40.104C214.235 41.6827 214.619 42.8773 215.387 43.688C216.176 44.4773 217.104 44.872 218.171 44.872ZM247.377 40.1069C244.118 42.4506 241.201 45.239 238.713 48.3832C237.868 48.3001 237.108 48.0897 236.433 47.752C235.537 47.304 234.812 46.6747 234.257 45.864L233.809 48.04H230.161V25H234.257V34.44C234.769 33.736 235.441 33.1173 236.273 32.584C237.126 32.0507 238.225 31.784 239.569 31.784C241.062 31.784 242.396 32.1467 243.569 32.872C244.742 33.5973 245.67 34.5893 246.353 35.848C247.032 37.099 247.373 38.5187 247.377 40.1069ZM263.414 32.9923C258.991 33.9389 254.819 35.5659 251.015 37.7584C251.185 37.0821 251.429 36.4453 251.748 35.848C252.452 34.568 253.412 33.576 254.628 32.872C255.865 32.1467 257.316 31.784 258.98 31.784C260.537 31.784 261.913 32.1253 263.108 32.808C263.212 32.8675 263.314 32.9289 263.414 32.9923ZM274.657 32.0953C273.928 32.0586 273.194 32.04 272.456 32.04C271.821 32.04 271.189 32.0537 270.561 32.081V25H274.657V32.0953ZM293.576 37.5752C289.91 35.5042 285.91 33.9557 281.676 33.0308C282.001 32.8252 282.35 32.6443 282.722 32.488C283.789 32.0187 284.984 31.784 286.306 31.784C288.568 31.784 290.349 32.3493 291.65 33.48C292.8 34.4788 293.442 35.8439 293.576 37.5752ZM301.999 43.7954C300.707 42.5732 299.339 41.4303 297.903 40.3744V32.168H301.999V43.7954ZM241.937 43.528C241.084 44.4027 240.006 44.84 238.705 44.84C237.382 44.84 236.294 44.4027 235.441 43.528C234.609 42.632 234.193 41.4907 234.193 40.104C234.193 38.7173 234.609 37.5867 235.441 36.712C236.294 35.816 237.382 35.368 238.705 35.368C240.006 35.368 241.084 35.816 241.937 36.712C242.79 37.608 243.217 38.7493 243.217 40.136C243.217 41.5227 242.79 42.6533 241.937 43.528ZM298.127 29.032C298.618 29.48 299.236 29.704 299.983 29.704C300.73 29.704 301.338 29.48 301.807 29.032C302.298 28.584 302.543 28.0187 302.543 27.336C302.543 26.6533 302.298 26.0987 301.807 25.672C301.338 25.224 300.73 25 299.983 25C299.236 25 298.618 25.224 298.127 25.672C297.658 26.0987 297.423 26.6533 297.423 27.336C297.423 28.0187 297.658 28.584 298.127 29.032ZM311.945 48.424C310.58 48.424 309.46 48.2107 308.585 47.784C307.711 47.336 307.06 46.7493 306.633 46.024C306.207 45.2987 305.993 44.4987 305.993 43.624C305.993 42.152 306.57 40.9573 307.721 40.04C308.873 39.1227 310.602 38.664 312.906 38.664H316.938V38.28C316.938 37.192 316.628 36.392 316.01 35.88C315.391 35.368 314.623 35.112 313.706 35.112C312.874 35.112 312.148 35.3147 311.529 35.72C310.911 36.104 310.527 36.68 310.378 37.448H306.378C306.484 36.296 306.868 35.2933 307.529 34.44C308.212 33.5867 309.087 32.936 310.154 32.488C311.22 32.0187 312.415 31.784 313.738 31.784C315.999 31.784 317.78 32.3493 319.081 33.48C320.383 34.6107 321.034 36.2107 321.034 38.28V48.04H317.546L317.161 45.48C316.692 46.3333 316.031 47.0373 315.178 47.592C314.346 48.1467 313.268 48.424 311.945 48.424ZM312.874 45.224C314.047 45.224 314.954 44.84 315.594 44.072C316.255 43.304 316.671 42.3547 316.842 41.224H313.354C312.266 41.224 311.487 41.4267 311.018 41.832C310.548 42.216 310.314 42.696 310.314 43.272C310.314 43.8907 310.548 44.3707 311.018 44.712C311.487 45.0533 312.105 45.224 312.874 45.224ZM328.79 32.168H325.142V48.04H329.238V40.808C329.238 39.592 329.43 38.6427 329.814 37.96C330.22 37.2773 330.774 36.7973 331.478 36.52C332.182 36.2427 332.982 36.104 333.878 36.104H335.03V31.784C333.686 31.784 332.513 32.0933 331.51 32.712C330.529 33.3093 329.75 34.12 329.174 35.144L328.79 32.168Z" fill="#FFBD3A"/>
</svg>
